<svg xmlns="http://www.w3.org/2000/svg" aria-hidden="true" focusable="false" data-prefix="fas" data-icon="bomb" role="img" width="512" height="512" style=""><rect id="backgroundrect" width="100%" height="100%" x="0" y="0" fill="none" stroke="none"/><defs><linearGradient id="svg_2"><stop stop-color="#4a90d6" stop-opacity="1" offset="0"/><stop stop-color="#b56f29" stop-opacity="1" offset="1"/></linearGradient><linearGradient id="svg_3"><stop stop-color="#2121d3" stop-opacity="1" offset="0.2938973903656006"/><stop stop-color="#dede2c" stop-opacity="1" offset="0.7353036403656006"/><stop stop-color="#dede2c" stop-opacity="1" offset="0.7704598903656006"/></linearGradient><linearGradient id="svg_4" x1="0.0" y1="0.0" x2="1.0" y2="0.0" spreadMethod="pad"><stop stop-color="#2121d3" stop-opacity="1" offset="0.2938973903656006"/><stop stop-color="#dede2c" stop-opacity="1" offset="0.7353036403656006"/><stop stop-color="#dede2c" stop-opacity="1" offset="0.7704598903656006"/></linearGradient><linearGradient id="svg_5"><stop stop-color="#096282" stop-opacity="1" offset="0"/><stop stop-color="#f69d7d" stop-opacity="1" offset="1"/></linearGradient><linearGradient id="svg_6" x1="0.0" y1="0.0" x2="1.0" y2="0.0"><stop stop-color="#096282" stop-opacity="1" offset="0"/><stop stop-color="#f69d7d" stop-opacity="1" offset="0.5360848903656006"/><stop stop-color="#f69d7d" stop-opacity="1" offset="1"/><stop stop-color="#f69d7d" stop-opacity="1" offset="1"/></linearGradient><linearGradient id="svg_7" x1="0.0" y1="0.0" x2="1.0" y2="0.0"><stop stop-color="#096282" stop-opacity="1" offset="0"/><stop stop-color="#f69d7d" stop-opacity="1" offset="0.8446786403656006"/></linearGradient></defs><g class="currentLayer" style=""><title>Layer 1</title><path fill="url(#svg_7)" d="M440.5 88.5l-52 52L415 167c9.4 9.4 9.4 24.6 0 33.9l-17.4 17.4c11.8 26.1 18.4 55.1 18.4 85.6 0 114.9-93.1 208-208 208S0 418.9 0 304 93.1 96 208 96c30.5 0 59.5 6.6 85.6 18.4L311 97c9.4-9.4 24.6-9.4 33.9 0l26.5 26.5 52-52 17.1 17zM500 60h-24c-6.6 0-12 5.4-12 12s5.4 12 12 12h24c6.6 0 12-5.4 12-12s-5.4-12-12-12zM440 0c-6.6 0-12 5.4-12 12v24c0 6.6 5.4 12 12 12s12-5.4 12-12V12c0-6.6-5.4-12-12-12zm33.9 55l17-17c4.7-4.7 4.7-12.3 0-17-4.7-4.7-12.3-4.7-17 0l-17 17c-4.7 4.7-4.7 12.3 0 17 4.8 4.7 12.4 4.7 17 0zm-67.8 0c4.7 4.7 12.3 4.7 17 0 4.7-4.7 4.7-12.3 0-17l-17-17c-4.7-4.7-12.3-4.7-17 0-4.7 4.7-4.7 12.3 0 17l17 17zm67.8 34c-4.7-4.7-12.3-4.7-17 0-4.7 4.7-4.7 12.3 0 17l17 17c4.7 4.7 12.3 4.7 17 0 4.7-4.7 4.7-12.3 0-17l-17-17zM112 272c0-35.3 28.7-64 64-64 8.8 0 16-7.2 16-16s-7.2-16-16-16c-52.9 0-96 43.1-96 96 0 8.8 7.2 16 16 16s16-7.2 16-16z" id="svg_1" class="selected" fill-opacity="1"/></g></svg>